<?xml version="1.0" encoding="utf-8"?>
<!-- Generator: Adobe Illustrator 16.0.0, SVG Export Plug-In . SVG Version: 6.00 Build 0)  -->
<!DOCTYPE svg PUBLIC "-//W3C//DTD SVG 1.1//EN" "http://www.w3.org/Graphics/SVG/1.1/DTD/svg11.dtd">
<svg version="1.1" id="Layer_1" xmlns="http://www.w3.org/2000/svg" xmlns:xlink="http://www.w3.org/1999/xlink" x="0px" y="0px"
	 width="792px" height="612px" viewBox="0 0 792 612" enable-background="new 0 0 792 612" xml:space="preserve">
<title  id="simpleicons-freecodecamp-icon">freeCodeCamp icon</title>
<path fill="#FFFFFF" d="M701.158,314.084c0,63.75-21.776,120.309-66.249,170.365c-16.192,18.589-29.146,27.438-37.943,27.438
	c-3.086,0-6.528-0.841-8.823-3.188c-2.346-2.447-3.825-5.687-3.825-8.925c0-4.794,5.737-12.112,17.188-22.669
	c46.257-44.269,69.538-99.323,69.538-164.629c0-72.572-24.047-131.375-71.808-176.868c-9.537-8.721-14.535-15.988-14.535-21.726
	c0-3.06,1.556-6.528,4.182-8.797c2.678-2.295,5.737-3.799,8.823-3.799c10.659,0,26.749,12.979,46.971,38.938
	C682.875,188.751,702,247.197,702,314.798L701.158,314.084z M90,297.891c0-63.724,21.777-120.334,66.249-170.365
	c16.192-18.589,29.146-27.438,37.995-27.438c3.034,0,6.477,0.842,8.772,3.188c2.295,2.422,3.825,4.82,3.825,8.007
	c0,4.794-5.737,12.163-17.187,23.409c-45.416,44.472-69.13,99.323-69.13,164.781c0,72.599,24.25,131.529,71.936,176.843
	c9.69,8.772,14.51,16.142,14.51,21.777c0,3.238-1.556,6.527-4.08,8.874c-2.524,2.396-5.738,4.08-8.976,4.08
	c-11.118,0-26.342-13.006-46.614-38.709C108.717,424.677,90,366.512,90,297.891z M541.324,473.051H261.232
	c-8.925,0-17.034-7.318-17.034-16.983c0-9.767,7.267-17.034,17.034-17.034h280.092c8.874,0,17.034,7.268,17.034,17.034
	C558.205,465.885,551.04,473.051,541.324,473.051L541.324,473.051z M388.325,245.616c5.023-0.638,8.772,15.682,9.205,19.099
	c1.174,9.001-1.81,17.672-5.89,25.577c-15.224,29.708-50.439,53.652-41.106,91.162c4.233,16.193,12.597,27.438,38.607,41.285
	c-8.798,3.034-21.012-2.831-27.897-7.676c-30.575-20.808-50.057-54.978-48.144-92.284c0.765-11.832,3.06-23.46,6.094-34.884
	c9.562-32.666,29.044-61.226,40.494-92.999c5.737-15.274,9.945-33.762,5.38-49.801c-2.295-7.88-6.502-15.275-11.857-21.65
	c-1.556-1.938-10.302-11.857-13.745-10.71c15.3-5.737,29.044-0.408,42.381,7.625c10.302,6.12,18.359,14.917,24.454,24.863
	c11.45,18.334,16.04,39.321,18.335,60.715c0.79,8.797-0.383,30.192,9.944,34.425c10.685,4.564,19.1-13.388,21.395-20.655
	c4.973-16.447-1.529-32.104-8.007-47.379c1.556,3.085,7.268,6.502,9.92,8.823l9.18,8.772c11.093,11.45,17.952,25.602,22.542,40.902
	c4.182,13.744,6.12,27.871,6.885,41.641c1.888,28.636-4.59,58.089-16.039,84.431c-4.973,11.806-11.449,22.898-19.864,32.461
	c-8.135,9.512-19.074,15.632-27.872,24.403c20.604-20.629,31.569-54.238,28.637-79.84c-1.53-14.102-6.095-27.106-16.805-40.086
	c0,0,1.147,9.129,2.219,14.867c1.912,12.622-6.503,26.01-16.422,24.454c-7.268-0.739-3.468-16.396-2.678-21.369
	c2.678-14.892-0.765-29.427-6.222-43.171c-5.33-12.979-15.301-23.307-30.549-20.987L388.325,245.616L388.325,245.616z"/>
</svg>
