<?xml version="1.0" encoding="utf-8"?>
<!-- Generator: Adobe Illustrator 16.0.0, SVG Export Plug-In . SVG Version: 6.00 Build 0)  -->
<!DOCTYPE svg PUBLIC "-//W3C//DTD SVG 1.1//EN" "http://www.w3.org/Graphics/SVG/1.1/DTD/svg11.dtd">
<svg version="1.1" id="Layer_1" xmlns="http://www.w3.org/2000/svg" xmlns:xlink="http://www.w3.org/1999/xlink" x="0px" y="0px"
	 width="792px" height="612px" viewBox="0 0 792 612" enable-background="new 0 0 792 612" xml:space="preserve">
<title  id="simpleicons-instagram-icon">Instagram icon</title>
<path fill="#FFFFFF" d="M396,0c-83.13,0-93.508,0.382-126.148,1.836c-32.589,1.53-54.774,6.656-74.282,14.229
	c-20.119,7.803-37.204,18.284-54.213,35.292c-17.008,17.008-27.515,34.068-35.292,54.213c-7.573,19.508-12.725,41.693-14.229,74.282
	C90.306,212.492,90,222.87,90,306s0.382,93.509,1.836,126.148c1.53,32.563,6.656,54.774,14.229,74.281
	c7.803,20.095,18.284,37.205,35.292,54.213c17.009,16.983,34.068,27.515,54.213,35.292c19.533,7.549,41.718,12.725,74.282,14.229
	C302.492,611.694,312.87,612,396,612s93.509-0.383,126.148-1.836c32.563-1.53,54.774-6.681,74.281-14.229
	c20.095-7.803,37.205-18.309,54.213-35.292c16.983-17.008,27.515-34.042,35.292-54.213c7.549-19.507,12.725-41.718,14.229-74.281
	C701.694,399.509,702,389.13,702,306s-0.383-93.509-1.836-126.148c-1.53-32.563-6.681-54.8-14.229-74.282
	c-7.803-20.12-18.309-37.205-35.292-54.213c-17.008-17.008-34.042-27.514-54.213-35.292C576.923,8.492,554.712,3.34,522.148,1.836
	C489.509,0.306,479.13,0,396,0z M396,55.08c81.677,0,91.418,0.408,123.675,1.811c29.835,1.402,46.027,6.35,56.789,10.583
	c14.331,5.533,24.479,12.164,35.24,22.848c10.685,10.71,17.315,20.885,22.849,35.216c4.182,10.761,9.18,26.954,10.531,56.789
	c1.453,32.283,1.785,41.973,1.785,123.675s-0.383,91.418-1.887,123.675c-1.556,29.835-6.528,46.027-10.736,56.789
	c-5.712,14.331-12.214,24.479-22.924,35.24c-10.685,10.685-21.012,17.315-35.19,22.849c-10.71,4.182-27.157,9.18-56.992,10.531
	c-32.487,1.453-42.05,1.785-123.905,1.785c-81.88,0-91.443-0.383-123.904-1.887c-29.86-1.556-46.308-6.528-57.018-10.736
	c-14.509-5.712-24.48-12.214-35.165-22.924c-10.735-10.685-17.595-21.013-22.95-35.19c-4.208-10.71-9.155-27.157-10.71-56.992
	c-1.147-32.13-1.555-42.05-1.555-123.522c0-81.498,0.408-91.443,1.555-123.955c1.556-29.835,6.503-46.257,10.71-56.967
	c5.355-14.535,12.214-24.48,22.95-35.215c10.685-10.685,20.655-17.569,35.165-22.899c10.71-4.233,26.8-9.206,56.636-10.735
	c32.512-1.148,42.075-1.53,123.904-1.53L396,55.08z M396,148.869c-86.828,0-157.131,70.38-157.131,157.131
	c0,86.827,70.38,157.131,157.131,157.131c86.827,0,157.131-70.38,157.131-157.131C553.131,219.172,482.751,148.869,396,148.869
	L396,148.869z M396,408c-56.355,0-102-45.645-102-102c0-56.355,45.645-102,102-102c56.355,0,102,45.645,102,102
	C498,362.355,452.355,408,396,408z M596.073,142.672c0,20.272-16.474,36.72-36.72,36.72c-20.273,0-36.721-16.473-36.721-36.72
	s16.473-36.694,36.721-36.694C579.574,105.953,596.073,122.425,596.073,142.672z"/>
</svg>
