<?xml version="1.0" encoding="utf-8"?>
<!-- Generator: Adobe Illustrator 16.0.0, SVG Export Plug-In . SVG Version: 6.00 Build 0)  -->
<!DOCTYPE svg PUBLIC "-//W3C//DTD SVG 1.1//EN" "http://www.w3.org/Graphics/SVG/1.1/DTD/svg11.dtd">
<svg version="1.1" id="Layer_1" xmlns="http://www.w3.org/2000/svg" xmlns:xlink="http://www.w3.org/1999/xlink" x="0px" y="0px"
	 width="792px" height="612px" viewBox="0 0 792 612" enable-background="new 0 0 792 612" xml:space="preserve">
<title  id="simpleicons-linkedin-icon">LinkedIn icon</title>
<path fill="#FFFFFF" stroke="#FFFFFF" stroke-miterlimit="10" d="M611.398,521.526h-90.627v-142.01
	c0-33.864-0.688-77.443-47.226-77.443c-47.252,0-54.468,36.848-54.468,74.944v144.509h-90.627V229.5h87.057v39.806h1.173
	c12.163-22.95,41.743-47.175,85.935-47.175c91.826,0,108.809,60.435,108.809,139.103v160.293H611.398z M226.093,189.542
	c-29.172,0-52.606-23.613-52.606-52.658c0-29.019,23.46-52.606,52.606-52.606c29.07,0,52.632,23.588,52.632,52.606
	C278.726,165.929,255.138,189.542,226.093,189.542z M271.535,521.526h-90.882V229.5h90.882V521.526z M656.737,0H135.161
	C110.196,0,90,19.737,90,44.089V567.91c0,24.378,20.196,44.09,45.161,44.09h521.5C681.6,612,702,592.288,702,567.91V44.089
	C702,19.737,681.6,0,656.661,0H656.737z"/>
</svg>
