<?xml version="1.0" encoding="utf-8"?>
<!-- Generator: Adobe Illustrator 16.0.0, SVG Export Plug-In . SVG Version: 6.00 Build 0)  -->
<!DOCTYPE svg PUBLIC "-//W3C//DTD SVG 1.1//EN" "http://www.w3.org/Graphics/SVG/1.1/DTD/svg11.dtd">
<svg version="1.1" id="Layer_1" xmlns="http://www.w3.org/2000/svg" xmlns:xlink="http://www.w3.org/1999/xlink" x="0px" y="0px"
	 width="792px" height="612px" viewBox="0 0 792 612" enable-background="new 0 0 792 612" xml:space="preserve">
<title  id="simpleicons-twitter-icon">Twitter icon</title>
<path fill="#FFFFFF" d="M700.827,116.509c-22.567,9.92-46.665,16.677-72.038,19.763c25.857-15.581,45.747-40.137,55.157-69.437
	c-24.251,14.152-51.128,24.455-79.739,30.192c-22.848-24.454-55.411-39.754-91.57-39.754c-69.283,0-125.46,56.177-125.46,125.383
	c0,9.945,1.148,19.508,3.239,28.662c-104.295-4.921-196.732-55.003-258.596-130.713c-10.888,18.411-16.983,39.806-16.983,63.112
	c0,43.605,22.185,81.932,55.794,104.448c-20.578-0.663-39.933-6.324-56.814-15.708v1.556c0,60.817,43.171,111.537,100.623,123.088
	c-10.531,2.831-21.649,4.361-33.048,4.361c-8.007,0-15.683-0.766-23.358-2.193c16.09,49.802,62.347,86.113,117.402,87.134
	c-42.84,33.634-97.129,53.677-155.601,53.677c-9.945,0-19.864-0.586-29.835-1.708c55.819,35.547,121.584,56.329,192.704,56.329
	c230.876,0,356.974-191.147,356.974-356.643c0-5.33,0-10.71-0.382-16.065c24.505-17.57,45.899-39.78,62.729-64.974L700.827,116.509
	L700.827,116.509z"/>
</svg>
